<svg xmlns="http://www.w3.org/2000/svg" xmlns:xlink="http://www.w3.org/1999/xlink" width="220" height="48" xml:space="preserve" overflow="hidden" viewBox="0 0 220 48"><defs><clipPath id="clip0"><rect x="327" y="688" width="220" height="72"/></clipPath></defs><g clip-path="url(#clip0)" transform="translate(-327 -688)"><path d="M541.61 688 541.61 725.801 509.965 688 504 688 504 733 509.39 733 509.39 695.008 541.416 733 547 733 547 688 541.61 688Z" fill="#19105B" fill-rule="evenodd"/><path d="M349.519 718.407C349.519 725.172 346.399 728.972 338.886 728.972 335.384 728.972 331.823 728.056 329.008 726.846L327 731.24C329.613 732.719 333.996 734 339.333 734 349.652 734 355 728.845 355 719.249L355 688 349.523 688 349.523 718.407Z" fill="#19105B" fill-rule="evenodd"/><path d="M412.908 688 394.163 723.679 375.289 688 368 688 368 733 373.401 733 373.401 694.941 393.512 733 394.552 733 414.599 694.941 414.599 733 420 733 420 688 412.908 688Z" fill="#19105B" fill-rule="evenodd"/><path d="M453.822 688 433 733 438.976 733 456.97 692.565 459 688 453.822 688Z" fill="#19105B" fill-rule="evenodd"/><path d="M464.819 688 444 733 449.975 733 467.967 692.565 470 688 464.819 688Z" fill="#19105B" fill-rule="evenodd"/><path d="M472.49 693 470 699.403 484.949 733 491 733 472.49 693Z" fill="#19105B" fill-rule="evenodd" fill-opacity="0.45098"/><path d="M419.862 753.317C422.03 753.317 423.63 752.932 424.664 752.166 425.698 751.4 426.215 750.22 426.215 748.625 426.215 747.03 425.683 745.845 424.623 745.106 423.559 744.37 421.874 744 419.56 744L415 744 415 760 416.744 760 416.744 753.317 417.436 753.317 424.686 760 427 760 419.691 753.317 419.865 753.317ZM419.642 745.602C421.331 745.602 422.547 745.849 423.299 746.338 424.046 746.828 424.422 747.612 424.422 748.696 424.422 749.779 424.046 750.564 423.299 751.053 422.547 751.542 421.331 751.785 419.642 751.785L416.741 751.785 416.741 745.606 419.642 745.606Z" fill="#19105B" fill-rule="evenodd"/><path d="M441.792 744 439.641 744 431.696 751.013 431.657 751.013 431.657 744 430 744 430 760 431.657 760 431.657 752.131 431.696 752.131 439.849 760 442 760 433.311 751.563 441.792 744Z" fill="#19105B" fill-rule="evenodd"/><path d="M445 760 454 760 454 758.423 446.551 758.423 446.551 752.351 453.613 752.351 453.613 750.793 446.551 750.793 446.551 745.577 454 745.577 454 744 445 744 445 760Z" fill="#19105B" fill-rule="evenodd"/><path d="M457 745.599 462.611 745.599 462.611 760 464.389 760 464.389 745.599 470 745.599 470 744 457 744 457 745.599Z" fill="#19105B" fill-rule="evenodd"/><path d="M488.362 745.248C487.271 744.415 485.567 744 483.258 744L479 744 479 760 480.711 760 480.711 754.326 483.473 754.326C485.698 754.326 487.344 753.903 488.405 753.055 489.467 752.207 490 750.907 490 749.155 490 747.403 489.453 746.088 488.362 745.255ZM487.078 751.867C486.3 752.424 485.042 752.7 483.301 752.7L480.711 752.7 480.711 745.599 483.301 745.599C485.042 745.599 486.3 745.879 487.078 746.443 487.855 747.007 488.245 747.907 488.245 749.151 488.245 750.395 487.855 751.315 487.078 751.867Z" fill="#19105B" fill-rule="evenodd" fill-opacity="0.45098"/><path d="M494.649 744 493 744 493 760 503 760 503 758.401 494.649 758.401 494.649 744Z" fill="#19105B" fill-rule="evenodd" fill-opacity="0.45098"/><path d="M511.858 744 506 760 507.847 760 509.403 755.596 516.59 755.596 518.154 760 520 760 514.142 744 511.855 744ZM509.972 753.993 512.971 745.513 513.014 745.513 516.028 753.993 509.976 753.993Z" fill="#19105B" fill-rule="evenodd" fill-opacity="0.45098"/><path d="M525.335 746.349C526.203 745.822 527.23 745.56 528.418 745.56 529.893 745.56 531.282 745.985 532.59 746.84L533 745.324C531.655 744.444 530.11 744 528.362 744 526.86 744 525.555 744.323 524.447 744.971 523.339 745.618 522.485 746.538 521.891 747.734 521.297 748.931 521 750.353 521 752 521 753.647 521.297 755.073 521.891 756.265 522.485 757.462 523.336 758.382 524.447 759.029 525.555 759.676 526.863 760 528.362 760 530.11 760 531.659 759.56 533 758.676L532.59 757.16C531.258 758.015 529.87 758.44 528.418 758.44 527.23 758.44 526.203 758.178 525.335 757.651 524.467 757.124 523.797 756.378 523.329 755.411 522.859 754.444 522.625 753.305 522.625 751.996 522.625 750.687 522.859 749.531 523.329 748.571 523.8 747.611 524.467 746.869 525.335 746.342Z" fill="#19105B" fill-rule="evenodd" fill-opacity="0.45098"/><path d="M547 745.577 547 744 537 744 537 760 547 760 547 758.423 538.723 758.423 538.723 752.351 546.57 752.351 546.57 750.793 538.723 750.793 538.723 745.577 547 745.577Z" fill="#19105B" fill-rule="evenodd" fill-opacity="0.45098"/><path d="M400.17 744 402 744 395.83 759 394 759 400.17 744Z" fill="#19105B" fill-rule="evenodd"/><path d="M403.94 744 406 744 399.063 759 397 759 403.94 744Z" fill="#19105B" fill-rule="evenodd"/><path d="M400.17 745 402 745 395.83 760 394 760 400.17 745Z" fill="#19105B" fill-rule="evenodd"/><path d="M406.891 747 406 749.093 410.214 759 412 759 406.891 747Z" fill="#19105B" fill-rule="evenodd" fill-opacity="0.45098"/><path d="M395 752.579 393.998 754.971 392.996 752.579 391.997 750.199 391.997 750.191 391.003 747.804 389.997 745.424 389.997 760 388 760 388 759.746 388.007 759.739 388 759.739 388 754.971 388.007 754.971 388 754.963 388 750.199 388.007 750.199 388 750.191 388 745.424 388.007 745.424 388 745.416 388 744 391.407 744 391.997 745.416 391.997 745.424 391.997 745.424 393.003 747.804 393.003 747.811 393.998 750.191 395 752.579Z" fill="#19105B" fill-rule="evenodd"/></g></svg>